<mxfile host="app.diagrams.net" modified="2023-12-18T13:49:20.966Z" agent="Mozilla/5.0 (Windows NT 10.0; Win64; x64) AppleWebKit/537.36 (KHTML, like Gecko) Chrome/119.0.0.0 Safari/537.36 OPR/105.0.0.0" etag="-M1nDvfqbgTUAYzXx9zt" version="22.1.11" type="device">
  <diagram id="R2lEEEUBdFMjLlhIrx00" name="Page-1">
    <mxGraphModel dx="2282" dy="783" grid="1" gridSize="10" guides="1" tooltips="1" connect="1" arrows="1" fold="1" page="1" pageScale="1" pageWidth="850" pageHeight="1100" math="0" shadow="0" extFonts="Permanent Marker^https://fonts.googleapis.com/css?family=Permanent+Marker">
      <root>
        <mxCell id="0" />
        <mxCell id="1" parent="0" />
        <mxCell id="qWpGnt_vV0j4eA0FD1tb-49" value="Users" style="shape=table;startSize=30;container=1;collapsible=1;childLayout=tableLayout;fixedRows=1;rowLines=0;fontStyle=1;align=center;resizeLast=1;" vertex="1" parent="1">
          <mxGeometry x="-70" y="330" width="300" height="180" as="geometry" />
        </mxCell>
        <mxCell id="qWpGnt_vV0j4eA0FD1tb-50" value="" style="shape=tableRow;horizontal=0;startSize=0;swimlaneHead=0;swimlaneBody=0;fillColor=none;collapsible=0;dropTarget=0;points=[[0,0.5],[1,0.5]];portConstraint=eastwest;strokeColor=inherit;top=0;left=0;right=0;bottom=1;" vertex="1" parent="qWpGnt_vV0j4eA0FD1tb-49">
          <mxGeometry y="30" width="300" height="30" as="geometry" />
        </mxCell>
        <mxCell id="qWpGnt_vV0j4eA0FD1tb-51" value="PK" style="shape=partialRectangle;overflow=hidden;connectable=0;fillColor=none;strokeColor=inherit;top=0;left=0;bottom=0;right=0;fontStyle=1;" vertex="1" parent="qWpGnt_vV0j4eA0FD1tb-50">
          <mxGeometry width="30" height="30" as="geometry">
            <mxRectangle width="30" height="30" as="alternateBounds" />
          </mxGeometry>
        </mxCell>
        <mxCell id="qWpGnt_vV0j4eA0FD1tb-52" value="id INTEGER NOT NULL AUTO_INCREMENT" style="shape=partialRectangle;overflow=hidden;connectable=0;fillColor=none;align=left;strokeColor=inherit;top=0;left=0;bottom=0;right=0;spacingLeft=6;fontStyle=5;" vertex="1" parent="qWpGnt_vV0j4eA0FD1tb-50">
          <mxGeometry x="30" width="270" height="30" as="geometry">
            <mxRectangle width="270" height="30" as="alternateBounds" />
          </mxGeometry>
        </mxCell>
        <mxCell id="qWpGnt_vV0j4eA0FD1tb-53" value="" style="shape=tableRow;horizontal=0;startSize=0;swimlaneHead=0;swimlaneBody=0;fillColor=none;collapsible=0;dropTarget=0;points=[[0,0.5],[1,0.5]];portConstraint=eastwest;strokeColor=inherit;top=0;left=0;right=0;bottom=0;" vertex="1" parent="qWpGnt_vV0j4eA0FD1tb-49">
          <mxGeometry y="60" width="300" height="30" as="geometry" />
        </mxCell>
        <mxCell id="qWpGnt_vV0j4eA0FD1tb-54" value="" style="shape=partialRectangle;overflow=hidden;connectable=0;fillColor=none;strokeColor=inherit;top=0;left=0;bottom=0;right=0;" vertex="1" parent="qWpGnt_vV0j4eA0FD1tb-53">
          <mxGeometry width="30" height="30" as="geometry">
            <mxRectangle width="30" height="30" as="alternateBounds" />
          </mxGeometry>
        </mxCell>
        <mxCell id="qWpGnt_vV0j4eA0FD1tb-55" value="name VARCHAR(50) NOT NULL" style="shape=partialRectangle;overflow=hidden;connectable=0;fillColor=none;align=left;strokeColor=inherit;top=0;left=0;bottom=0;right=0;spacingLeft=6;" vertex="1" parent="qWpGnt_vV0j4eA0FD1tb-53">
          <mxGeometry x="30" width="270" height="30" as="geometry">
            <mxRectangle width="270" height="30" as="alternateBounds" />
          </mxGeometry>
        </mxCell>
        <mxCell id="qWpGnt_vV0j4eA0FD1tb-56" value="" style="shape=tableRow;horizontal=0;startSize=0;swimlaneHead=0;swimlaneBody=0;fillColor=none;collapsible=0;dropTarget=0;points=[[0,0.5],[1,0.5]];portConstraint=eastwest;strokeColor=inherit;top=0;left=0;right=0;bottom=0;" vertex="1" parent="qWpGnt_vV0j4eA0FD1tb-49">
          <mxGeometry y="90" width="300" height="30" as="geometry" />
        </mxCell>
        <mxCell id="qWpGnt_vV0j4eA0FD1tb-57" value="" style="shape=partialRectangle;overflow=hidden;connectable=0;fillColor=none;strokeColor=inherit;top=0;left=0;bottom=0;right=0;" vertex="1" parent="qWpGnt_vV0j4eA0FD1tb-56">
          <mxGeometry width="30" height="30" as="geometry">
            <mxRectangle width="30" height="30" as="alternateBounds" />
          </mxGeometry>
        </mxCell>
        <mxCell id="qWpGnt_vV0j4eA0FD1tb-58" value="email VARCHAR(100) UNIQUE NOT NULL" style="shape=partialRectangle;overflow=hidden;connectable=0;fillColor=none;align=left;strokeColor=inherit;top=0;left=0;bottom=0;right=0;spacingLeft=6;" vertex="1" parent="qWpGnt_vV0j4eA0FD1tb-56">
          <mxGeometry x="30" width="270" height="30" as="geometry">
            <mxRectangle width="270" height="30" as="alternateBounds" />
          </mxGeometry>
        </mxCell>
        <mxCell id="qWpGnt_vV0j4eA0FD1tb-59" value="" style="shape=tableRow;horizontal=0;startSize=0;swimlaneHead=0;swimlaneBody=0;fillColor=none;collapsible=0;dropTarget=0;points=[[0,0.5],[1,0.5]];portConstraint=eastwest;strokeColor=inherit;top=0;left=0;right=0;bottom=0;" vertex="1" parent="qWpGnt_vV0j4eA0FD1tb-49">
          <mxGeometry y="120" width="300" height="30" as="geometry" />
        </mxCell>
        <mxCell id="qWpGnt_vV0j4eA0FD1tb-60" value="" style="shape=partialRectangle;overflow=hidden;connectable=0;fillColor=none;strokeColor=inherit;top=0;left=0;bottom=0;right=0;" vertex="1" parent="qWpGnt_vV0j4eA0FD1tb-59">
          <mxGeometry width="30" height="30" as="geometry">
            <mxRectangle width="30" height="30" as="alternateBounds" />
          </mxGeometry>
        </mxCell>
        <mxCell id="qWpGnt_vV0j4eA0FD1tb-61" value="password VARCHAR(100) NOT NULL" style="shape=partialRectangle;overflow=hidden;connectable=0;fillColor=none;align=left;strokeColor=inherit;top=0;left=0;bottom=0;right=0;spacingLeft=6;" vertex="1" parent="qWpGnt_vV0j4eA0FD1tb-59">
          <mxGeometry x="30" width="270" height="30" as="geometry">
            <mxRectangle width="270" height="30" as="alternateBounds" />
          </mxGeometry>
        </mxCell>
        <mxCell id="qWpGnt_vV0j4eA0FD1tb-62" value="" style="shape=tableRow;horizontal=0;startSize=0;swimlaneHead=0;swimlaneBody=0;fillColor=none;collapsible=0;dropTarget=0;points=[[0,0.5],[1,0.5]];portConstraint=eastwest;strokeColor=inherit;top=0;left=0;right=0;bottom=0;" vertex="1" parent="qWpGnt_vV0j4eA0FD1tb-49">
          <mxGeometry y="150" width="300" height="30" as="geometry" />
        </mxCell>
        <mxCell id="qWpGnt_vV0j4eA0FD1tb-63" value="" style="shape=partialRectangle;overflow=hidden;connectable=0;fillColor=none;strokeColor=inherit;top=0;left=0;bottom=0;right=0;" vertex="1" parent="qWpGnt_vV0j4eA0FD1tb-62">
          <mxGeometry width="30" height="30" as="geometry">
            <mxRectangle width="30" height="30" as="alternateBounds" />
          </mxGeometry>
        </mxCell>
        <mxCell id="qWpGnt_vV0j4eA0FD1tb-64" value="username VARCHAR(20) UNIQUE NOT NULL" style="shape=partialRectangle;overflow=hidden;connectable=0;fillColor=none;align=left;strokeColor=inherit;top=0;left=0;bottom=0;right=0;spacingLeft=6;" vertex="1" parent="qWpGnt_vV0j4eA0FD1tb-62">
          <mxGeometry x="30" width="270" height="30" as="geometry">
            <mxRectangle width="270" height="30" as="alternateBounds" />
          </mxGeometry>
        </mxCell>
        <mxCell id="qWpGnt_vV0j4eA0FD1tb-65" value="Documents" style="shape=table;startSize=30;container=1;collapsible=1;childLayout=tableLayout;fixedRows=1;rowLines=0;fontStyle=1;align=center;resizeLast=1;" vertex="1" parent="1">
          <mxGeometry x="290" y="580" width="500" height="180" as="geometry" />
        </mxCell>
        <mxCell id="qWpGnt_vV0j4eA0FD1tb-66" value="" style="shape=tableRow;horizontal=0;startSize=0;swimlaneHead=0;swimlaneBody=0;fillColor=none;collapsible=0;dropTarget=0;points=[[0,0.5],[1,0.5]];portConstraint=eastwest;strokeColor=inherit;top=0;left=0;right=0;bottom=1;" vertex="1" parent="qWpGnt_vV0j4eA0FD1tb-65">
          <mxGeometry y="30" width="500" height="30" as="geometry" />
        </mxCell>
        <mxCell id="qWpGnt_vV0j4eA0FD1tb-67" value="PK" style="shape=partialRectangle;overflow=hidden;connectable=0;fillColor=none;strokeColor=inherit;top=0;left=0;bottom=0;right=0;fontStyle=1;" vertex="1" parent="qWpGnt_vV0j4eA0FD1tb-66">
          <mxGeometry width="30" height="30" as="geometry">
            <mxRectangle width="30" height="30" as="alternateBounds" />
          </mxGeometry>
        </mxCell>
        <mxCell id="qWpGnt_vV0j4eA0FD1tb-68" value="id INTEGER NOT NULL AUTO_INCREMENT" style="shape=partialRectangle;overflow=hidden;connectable=0;fillColor=none;align=left;strokeColor=inherit;top=0;left=0;bottom=0;right=0;spacingLeft=6;fontStyle=5;" vertex="1" parent="qWpGnt_vV0j4eA0FD1tb-66">
          <mxGeometry x="30" width="470" height="30" as="geometry">
            <mxRectangle width="470" height="30" as="alternateBounds" />
          </mxGeometry>
        </mxCell>
        <mxCell id="qWpGnt_vV0j4eA0FD1tb-69" value="" style="shape=tableRow;horizontal=0;startSize=0;swimlaneHead=0;swimlaneBody=0;fillColor=none;collapsible=0;dropTarget=0;points=[[0,0.5],[1,0.5]];portConstraint=eastwest;strokeColor=inherit;top=0;left=0;right=0;bottom=0;" vertex="1" parent="qWpGnt_vV0j4eA0FD1tb-65">
          <mxGeometry y="60" width="500" height="30" as="geometry" />
        </mxCell>
        <mxCell id="qWpGnt_vV0j4eA0FD1tb-70" value="" style="shape=partialRectangle;overflow=hidden;connectable=0;fillColor=none;strokeColor=inherit;top=0;left=0;bottom=0;right=0;" vertex="1" parent="qWpGnt_vV0j4eA0FD1tb-69">
          <mxGeometry width="30" height="30" as="geometry">
            <mxRectangle width="30" height="30" as="alternateBounds" />
          </mxGeometry>
        </mxCell>
        <mxCell id="qWpGnt_vV0j4eA0FD1tb-71" value="name VARCHAR(50) NOT NULL" style="shape=partialRectangle;overflow=hidden;connectable=0;fillColor=none;align=left;strokeColor=inherit;top=0;left=0;bottom=0;right=0;spacingLeft=6;" vertex="1" parent="qWpGnt_vV0j4eA0FD1tb-69">
          <mxGeometry x="30" width="470" height="30" as="geometry">
            <mxRectangle width="470" height="30" as="alternateBounds" />
          </mxGeometry>
        </mxCell>
        <mxCell id="qWpGnt_vV0j4eA0FD1tb-72" value="" style="shape=tableRow;horizontal=0;startSize=0;swimlaneHead=0;swimlaneBody=0;fillColor=none;collapsible=0;dropTarget=0;points=[[0,0.5],[1,0.5]];portConstraint=eastwest;strokeColor=inherit;top=0;left=0;right=0;bottom=0;" vertex="1" parent="qWpGnt_vV0j4eA0FD1tb-65">
          <mxGeometry y="90" width="500" height="30" as="geometry" />
        </mxCell>
        <mxCell id="qWpGnt_vV0j4eA0FD1tb-73" value="" style="shape=partialRectangle;overflow=hidden;connectable=0;fillColor=none;strokeColor=inherit;top=0;left=0;bottom=0;right=0;" vertex="1" parent="qWpGnt_vV0j4eA0FD1tb-72">
          <mxGeometry width="30" height="30" as="geometry">
            <mxRectangle width="30" height="30" as="alternateBounds" />
          </mxGeometry>
        </mxCell>
        <mxCell id="qWpGnt_vV0j4eA0FD1tb-74" value="creation_date TIMESTAMP DEFAULT CURRENT_TIMESTAMP NOT NULL" style="shape=partialRectangle;overflow=hidden;connectable=0;fillColor=none;align=left;strokeColor=inherit;top=0;left=0;bottom=0;right=0;spacingLeft=6;" vertex="1" parent="qWpGnt_vV0j4eA0FD1tb-72">
          <mxGeometry x="30" width="470" height="30" as="geometry">
            <mxRectangle width="470" height="30" as="alternateBounds" />
          </mxGeometry>
        </mxCell>
        <mxCell id="qWpGnt_vV0j4eA0FD1tb-75" value="" style="shape=tableRow;horizontal=0;startSize=0;swimlaneHead=0;swimlaneBody=0;fillColor=none;collapsible=0;dropTarget=0;points=[[0,0.5],[1,0.5]];portConstraint=eastwest;strokeColor=inherit;top=0;left=0;right=0;bottom=0;" vertex="1" parent="qWpGnt_vV0j4eA0FD1tb-65">
          <mxGeometry y="120" width="500" height="30" as="geometry" />
        </mxCell>
        <mxCell id="qWpGnt_vV0j4eA0FD1tb-76" value="" style="shape=partialRectangle;overflow=hidden;connectable=0;fillColor=none;strokeColor=inherit;top=0;left=0;bottom=0;right=0;" vertex="1" parent="qWpGnt_vV0j4eA0FD1tb-75">
          <mxGeometry width="30" height="30" as="geometry">
            <mxRectangle width="30" height="30" as="alternateBounds" />
          </mxGeometry>
        </mxCell>
        <mxCell id="qWpGnt_vV0j4eA0FD1tb-77" value="user_id INTEGER" style="shape=partialRectangle;overflow=hidden;connectable=0;fillColor=none;align=left;strokeColor=inherit;top=0;left=0;bottom=0;right=0;spacingLeft=6;" vertex="1" parent="qWpGnt_vV0j4eA0FD1tb-75">
          <mxGeometry x="30" width="470" height="30" as="geometry">
            <mxRectangle width="470" height="30" as="alternateBounds" />
          </mxGeometry>
        </mxCell>
        <mxCell id="qWpGnt_vV0j4eA0FD1tb-78" value="" style="shape=tableRow;horizontal=0;startSize=0;swimlaneHead=0;swimlaneBody=0;fillColor=none;collapsible=0;dropTarget=0;points=[[0,0.5],[1,0.5]];portConstraint=eastwest;strokeColor=inherit;top=0;left=0;right=0;bottom=0;" vertex="1" parent="qWpGnt_vV0j4eA0FD1tb-65">
          <mxGeometry y="150" width="500" height="30" as="geometry" />
        </mxCell>
        <mxCell id="qWpGnt_vV0j4eA0FD1tb-79" value="" style="shape=partialRectangle;overflow=hidden;connectable=0;fillColor=none;strokeColor=inherit;top=0;left=0;bottom=0;right=0;" vertex="1" parent="qWpGnt_vV0j4eA0FD1tb-78">
          <mxGeometry width="30" height="30" as="geometry">
            <mxRectangle width="30" height="30" as="alternateBounds" />
          </mxGeometry>
        </mxCell>
        <mxCell id="qWpGnt_vV0j4eA0FD1tb-80" value="FOREIGN KEY (user_id) REFERENCES Users(id) ON DELETE CASCADE" style="shape=partialRectangle;overflow=hidden;connectable=0;fillColor=none;align=left;strokeColor=inherit;top=0;left=0;bottom=0;right=0;spacingLeft=6;" vertex="1" parent="qWpGnt_vV0j4eA0FD1tb-78">
          <mxGeometry x="30" width="470" height="30" as="geometry">
            <mxRectangle width="470" height="30" as="alternateBounds" />
          </mxGeometry>
        </mxCell>
        <mxCell id="qWpGnt_vV0j4eA0FD1tb-81" value="DocumentVersions" style="shape=table;startSize=30;container=1;collapsible=1;childLayout=tableLayout;fixedRows=1;rowLines=0;fontStyle=1;align=center;resizeLast=1;" vertex="1" parent="1">
          <mxGeometry x="850" y="300" width="510" height="180" as="geometry" />
        </mxCell>
        <mxCell id="qWpGnt_vV0j4eA0FD1tb-82" value="" style="shape=tableRow;horizontal=0;startSize=0;swimlaneHead=0;swimlaneBody=0;fillColor=none;collapsible=0;dropTarget=0;points=[[0,0.5],[1,0.5]];portConstraint=eastwest;strokeColor=inherit;top=0;left=0;right=0;bottom=1;" vertex="1" parent="qWpGnt_vV0j4eA0FD1tb-81">
          <mxGeometry y="30" width="510" height="30" as="geometry" />
        </mxCell>
        <mxCell id="qWpGnt_vV0j4eA0FD1tb-83" value="PK" style="shape=partialRectangle;overflow=hidden;connectable=0;fillColor=none;strokeColor=inherit;top=0;left=0;bottom=0;right=0;fontStyle=1;" vertex="1" parent="qWpGnt_vV0j4eA0FD1tb-82">
          <mxGeometry width="30" height="30" as="geometry">
            <mxRectangle width="30" height="30" as="alternateBounds" />
          </mxGeometry>
        </mxCell>
        <mxCell id="qWpGnt_vV0j4eA0FD1tb-84" value="id INTEGER NOT NULL AUTO_INCREMENT" style="shape=partialRectangle;overflow=hidden;connectable=0;fillColor=none;align=left;strokeColor=inherit;top=0;left=0;bottom=0;right=0;spacingLeft=6;fontStyle=5;" vertex="1" parent="qWpGnt_vV0j4eA0FD1tb-82">
          <mxGeometry x="30" width="480" height="30" as="geometry">
            <mxRectangle width="480" height="30" as="alternateBounds" />
          </mxGeometry>
        </mxCell>
        <mxCell id="qWpGnt_vV0j4eA0FD1tb-85" value="" style="shape=tableRow;horizontal=0;startSize=0;swimlaneHead=0;swimlaneBody=0;fillColor=none;collapsible=0;dropTarget=0;points=[[0,0.5],[1,0.5]];portConstraint=eastwest;strokeColor=inherit;top=0;left=0;right=0;bottom=0;" vertex="1" parent="qWpGnt_vV0j4eA0FD1tb-81">
          <mxGeometry y="60" width="510" height="30" as="geometry" />
        </mxCell>
        <mxCell id="qWpGnt_vV0j4eA0FD1tb-86" value="" style="shape=partialRectangle;overflow=hidden;connectable=0;fillColor=none;strokeColor=inherit;top=0;left=0;bottom=0;right=0;" vertex="1" parent="qWpGnt_vV0j4eA0FD1tb-85">
          <mxGeometry width="30" height="30" as="geometry">
            <mxRectangle width="30" height="30" as="alternateBounds" />
          </mxGeometry>
        </mxCell>
        <mxCell id="qWpGnt_vV0j4eA0FD1tb-87" value="document_id INTEGER" style="shape=partialRectangle;overflow=hidden;connectable=0;fillColor=none;align=left;strokeColor=inherit;top=0;left=0;bottom=0;right=0;spacingLeft=6;" vertex="1" parent="qWpGnt_vV0j4eA0FD1tb-85">
          <mxGeometry x="30" width="480" height="30" as="geometry">
            <mxRectangle width="480" height="30" as="alternateBounds" />
          </mxGeometry>
        </mxCell>
        <mxCell id="qWpGnt_vV0j4eA0FD1tb-88" value="" style="shape=tableRow;horizontal=0;startSize=0;swimlaneHead=0;swimlaneBody=0;fillColor=none;collapsible=0;dropTarget=0;points=[[0,0.5],[1,0.5]];portConstraint=eastwest;strokeColor=inherit;top=0;left=0;right=0;bottom=0;" vertex="1" parent="qWpGnt_vV0j4eA0FD1tb-81">
          <mxGeometry y="90" width="510" height="30" as="geometry" />
        </mxCell>
        <mxCell id="qWpGnt_vV0j4eA0FD1tb-89" value="" style="shape=partialRectangle;overflow=hidden;connectable=0;fillColor=none;strokeColor=inherit;top=0;left=0;bottom=0;right=0;" vertex="1" parent="qWpGnt_vV0j4eA0FD1tb-88">
          <mxGeometry width="30" height="30" as="geometry">
            <mxRectangle width="30" height="30" as="alternateBounds" />
          </mxGeometry>
        </mxCell>
        <mxCell id="qWpGnt_vV0j4eA0FD1tb-90" value="modification_date TIMESTAMP DEFAULT CURRENT_TIMESTAMP NOT NULL" style="shape=partialRectangle;overflow=hidden;connectable=0;fillColor=none;align=left;strokeColor=inherit;top=0;left=0;bottom=0;right=0;spacingLeft=6;" vertex="1" parent="qWpGnt_vV0j4eA0FD1tb-88">
          <mxGeometry x="30" width="480" height="30" as="geometry">
            <mxRectangle width="480" height="30" as="alternateBounds" />
          </mxGeometry>
        </mxCell>
        <mxCell id="qWpGnt_vV0j4eA0FD1tb-91" value="" style="shape=tableRow;horizontal=0;startSize=0;swimlaneHead=0;swimlaneBody=0;fillColor=none;collapsible=0;dropTarget=0;points=[[0,0.5],[1,0.5]];portConstraint=eastwest;strokeColor=inherit;top=0;left=0;right=0;bottom=0;" vertex="1" parent="qWpGnt_vV0j4eA0FD1tb-81">
          <mxGeometry y="120" width="510" height="30" as="geometry" />
        </mxCell>
        <mxCell id="qWpGnt_vV0j4eA0FD1tb-92" value="" style="shape=partialRectangle;overflow=hidden;connectable=0;fillColor=none;strokeColor=inherit;top=0;left=0;bottom=0;right=0;" vertex="1" parent="qWpGnt_vV0j4eA0FD1tb-91">
          <mxGeometry width="30" height="30" as="geometry">
            <mxRectangle width="30" height="30" as="alternateBounds" />
          </mxGeometry>
        </mxCell>
        <mxCell id="qWpGnt_vV0j4eA0FD1tb-93" value="route VARCHAR(100)" style="shape=partialRectangle;overflow=hidden;connectable=0;fillColor=none;align=left;strokeColor=inherit;top=0;left=0;bottom=0;right=0;spacingLeft=6;" vertex="1" parent="qWpGnt_vV0j4eA0FD1tb-91">
          <mxGeometry x="30" width="480" height="30" as="geometry">
            <mxRectangle width="480" height="30" as="alternateBounds" />
          </mxGeometry>
        </mxCell>
        <mxCell id="qWpGnt_vV0j4eA0FD1tb-94" value="" style="shape=tableRow;horizontal=0;startSize=0;swimlaneHead=0;swimlaneBody=0;fillColor=none;collapsible=0;dropTarget=0;points=[[0,0.5],[1,0.5]];portConstraint=eastwest;strokeColor=inherit;top=0;left=0;right=0;bottom=0;" vertex="1" parent="qWpGnt_vV0j4eA0FD1tb-81">
          <mxGeometry y="150" width="510" height="30" as="geometry" />
        </mxCell>
        <mxCell id="qWpGnt_vV0j4eA0FD1tb-95" value="" style="shape=partialRectangle;overflow=hidden;connectable=0;fillColor=none;strokeColor=inherit;top=0;left=0;bottom=0;right=0;" vertex="1" parent="qWpGnt_vV0j4eA0FD1tb-94">
          <mxGeometry width="30" height="30" as="geometry">
            <mxRectangle width="30" height="30" as="alternateBounds" />
          </mxGeometry>
        </mxCell>
        <mxCell id="qWpGnt_vV0j4eA0FD1tb-96" value="FOREIGN KEY (document_id) REFERENCES Documents(id) ON DELETE CASCADE" style="shape=partialRectangle;overflow=hidden;connectable=0;fillColor=none;align=left;strokeColor=inherit;top=0;left=0;bottom=0;right=0;spacingLeft=6;" vertex="1" parent="qWpGnt_vV0j4eA0FD1tb-94">
          <mxGeometry x="30" width="480" height="30" as="geometry">
            <mxRectangle width="480" height="30" as="alternateBounds" />
          </mxGeometry>
        </mxCell>
        <mxCell id="qWpGnt_vV0j4eA0FD1tb-98" value="" style="edgeStyle=entityRelationEdgeStyle;fontSize=12;html=1;endArrow=ERzeroToMany;endFill=1;rounded=0;exitX=1;exitY=0.5;exitDx=0;exitDy=0;" edge="1" parent="1" source="qWpGnt_vV0j4eA0FD1tb-56" target="qWpGnt_vV0j4eA0FD1tb-65">
          <mxGeometry width="100" height="100" relative="1" as="geometry">
            <mxPoint x="210" y="420" as="sourcePoint" />
            <mxPoint x="310" y="320" as="targetPoint" />
          </mxGeometry>
        </mxCell>
        <mxCell id="qWpGnt_vV0j4eA0FD1tb-99" value="" style="edgeStyle=entityRelationEdgeStyle;fontSize=12;html=1;endArrow=ERzeroToMany;endFill=1;rounded=0;entryX=0;entryY=0.5;entryDx=0;entryDy=0;exitX=1;exitY=0.5;exitDx=0;exitDy=0;" edge="1" parent="1" source="qWpGnt_vV0j4eA0FD1tb-72" target="qWpGnt_vV0j4eA0FD1tb-88">
          <mxGeometry width="100" height="100" relative="1" as="geometry">
            <mxPoint x="460" y="540" as="sourcePoint" />
            <mxPoint x="670" y="395" as="targetPoint" />
            <Array as="points">
              <mxPoint x="480" y="580" />
              <mxPoint x="450" y="510" />
              <mxPoint x="550" y="410" />
              <mxPoint x="450" y="530" />
            </Array>
          </mxGeometry>
        </mxCell>
      </root>
    </mxGraphModel>
  </diagram>
</mxfile>
